# xmcd
#
# Track frame offsets: 
#        150
#        12100
#        24713
#        37638
#        50388
#        62125
#        75688
#        89063
#        102300
#        111850
#        121913
#        133013
#        144688
#        155200
#        168613
#        181025
#        192288
#        203788
#        214850
#        228075
#        238288
#        249313
#
# Disc length: 3512 seconds
#
# Revision: 0
# Processed by: cddbd v1.5.2PL0 Copyright (c) Steve Scherf et al.
# Submitted via: ExactAudioCopyFreeDBPlugin 1.0
#
DISCID=320db616
DTITLE=Various Artist - Hillbilly Heaven
DYEAR=1900
DGENRE=Country
TTITLE0=Earnest Tubb - Walking The Floor Over Yout
TTITLE1=Al Dexter - Pistol Packing Mama
TTITLE2=Spade Cooley - Shame On You
TTITLE3=Bob Wills - Stay A Little Longer
TTITLE4=Roy Acuff - Wabash Cannon Ball
TTITLE5=George Morgan - Candy Kisses
TTITLE6=Lefty Frizzell - If You've Got The Money, I've Got The Time
TTITLE7=Hank Williams - Hey Good Lookin'
TTITLE8=Webb Pierce - In The Jailhouse Now
TTITLE9=Johnny Horton - Honky Tonk Man
TTITLE10=Marty Robbins - Singing The Blues
TTITLE11=Patsy Cline - Walkin' After Midnight
TTITLE12=Cowboy Copas - Alabam
TTITLE13=Carl Peal Butler - Don't Let Me Cross Over
TTITLE14=Hawkshaw Hawkins - Lonesome
TTITLE15=Roy Orbison - Blue Bayou
TTITLE16=Jim Reeves and Dottie West - Love Is No Excuse
TTITLE17=Roger Miller - King of the Road
TTITLE18=David Houston - Almost Persuaded
TTITLE19=Bob Luman - When You Say Love
TTITLE20=Conway Twitty - Hello Darlin'
TTITLE21=Tex Ritter - I Dreamed of a Hillbilly Heaven
EXTD=
EXTT0=
EXTT1=
EXTT2=
EXTT3=
EXTT4=
EXTT5=
EXTT6=
EXTT7=
EXTT8=
EXTT9=
EXTT10=
EXTT11=
EXTT12=
EXTT13=
EXTT14=
EXTT15=
EXTT16=
EXTT17=
EXTT18=
EXTT19=
EXTT20=
EXTT21=
PLAYORDER=
